# xmcd
#
# Track frame offsets: 
#        183
#        33875
#        62240
#        163180
#        198903
#        228210
#
# Disc length: 4408 seconds
#
# Revision: 4
# Processed by: cddbd v1.5.2PL0 Copyright (c) Steve Scherf et al.
# Submitted via: ExactAudioCopyFreeDBPlugin 1.0
#
DISCID=46113606
DTITLE=Sigi Schwab and Percussion Academia - Live
DYEAR=1989
DGENRE=Jazz
TTITLE0=Jogging
TTITLE1=Ballade für Anna
TTITLE2=Silversand
TTITLE3=Tango Fugado
TTITLE4=Vorsicht Kamera
TTITLE5=Sphinx
EXTD=
EXTT0=
EXTT1=
EXTT2=
EXTT3=
EXTT4=
EXTT5=
PLAYORDER=
